<svg width="36" height="36" viewBox="0 0 36 36" fill="none" xmlns="http://www.w3.org/2000/svg">
<path d="M0 6C0 2.68629 2.68629 0 6 0H30C33.3137 0 36 2.68629 36 6V30C36 33.3137 33.3137 36 30 36H6C2.68629 36 0 33.3137 0 30V6Z" fill="#F4F4F5"/>
<path d="M0 6C0 2.68629 2.68629 0 6 0H30C33.3137 0 36 2.68629 36 6V30C36 33.3137 33.3137 36 30 36H6C2.68629 36 0 33.3137 0 30V6Z" fill="white" fill-opacity="0.5"/>
<path d="M25.5 21.3332V14.6665C25.4997 14.3742 25.4225 14.0872 25.2763 13.8341C25.13 13.5811 24.9198 13.371 24.6667 13.2248L18.8333 9.8915C18.58 9.74522 18.2926 9.66821 18 9.66821C17.7074 9.66821 17.42 9.74522 17.1667 9.8915L11.3333 13.2248C11.0802 13.371 10.87 13.5811 10.7237 13.8341C10.5775 14.0872 10.5003 14.3742 10.5 14.6665V21.3332C10.5003 21.6254 10.5775 21.9125 10.7237 22.1655C10.87 22.4186 11.0802 22.6287 11.3333 22.7748L17.1667 26.1082C17.42 26.2544 17.7074 26.3315 18 26.3315C18.2926 26.3315 18.58 26.2544 18.8333 26.1082L24.6667 22.7748C24.9198 22.6287 25.13 22.4186 25.2763 22.1655C25.4225 21.9125 25.4997 21.6254 25.5 21.3332Z" stroke="#232323" stroke-width="1.5" stroke-linecap="round" stroke-linejoin="round"/>
<path d="M18 21.3333C19.8409 21.3333 21.3333 19.8409 21.3333 17.9999C21.3333 16.159 19.8409 14.6666 18 14.6666C16.1591 14.6666 14.6667 16.159 14.6667 17.9999C14.6667 19.8409 16.1591 21.3333 18 21.3333Z" stroke="#232323" stroke-width="1.5" stroke-linecap="round" stroke-linejoin="round"/>
</svg>
