<svg width="20" height="20" fill="none" xmlns="http://www.w3.org/2000/svg"><path d="M9.167 7.5H12.5a1.667 1.667 0 0 0 1.667-1.667V2.5m-5 5a1.667 1.667 0 1 1-3.334 0 1.667 1.667 0 0 1 3.334 0Zm-3.334 10v-3.333A1.666 1.666 0 0 1 7.5 12.5h3.333m0 0a1.667 1.667 0 1 0 3.334 0 1.667 1.667 0 0 0-3.334 0Zm-6.666-10h11.666c.92 0 1.667.746 1.667 1.667v11.666c0 .92-.746 1.667-1.667 1.667H4.167c-.92 0-1.667-.746-1.667-1.667V4.167c0-.92.746-1.667 1.667-1.667Z" stroke="#232323" stroke-width="1.5" stroke-linecap="round" stroke-linejoin="round"/></svg>