<svg width="20" height="20" fill="none" xmlns="http://www.w3.org/2000/svg"><path d="M17.5 13.333V6.666a1.667 1.667 0 0 0-.833-1.441l-5.834-3.333a1.666 1.666 0 0 0-1.666 0L3.333 5.224A1.667 1.667 0 0 0 2.5 6.667v6.666a1.666 1.666 0 0 0 .833 1.442l5.834 3.333a1.667 1.667 0 0 0 1.666 0l5.834-3.333a1.666 1.666 0 0 0 .833-1.442Z" stroke="#232323" stroke-width="1.5" stroke-linecap="round" stroke-linejoin="round"/><path d="M10 13.333a3.333 3.333 0 1 0 0-6.666 3.333 3.333 0 0 0 0 6.666Z" stroke="#232323" stroke-width="1.5" stroke-linecap="round" stroke-linejoin="round"/></svg>