<svg width="49" height="41" fill="none" xmlns="http://www.w3.org/2000/svg"><path d="M2.402 31.064a1.317 1.317 0 0 0-1.44-.08.972.972 0 0 0-.255.172c-.25.233-.388.549-.388.888 0 .242.082.47.243.684.174.2.594.521.846.707 1.347.98 2.752 1.797 2.767 1.806l.015.009.015.007c.039.019.127.068.239.13 5.449 3.038 12.495 4.829 19.839 4.829h.165c11.699-.083 23.797-4.794 23.797-12.536 0-2.593-1.686-5.281-5.161-8.224-2.894-2.28-6.3-4.407-9.548-6.367l-.852-.512c-5.28-3.18-10.268-6.185-10.268-8.444 0-1.36 1.622-1.748 5.03-1.748 4.057 0 9.48 1.248 13.855 3.308l.195.092c.019.008.3.133.478.182.23.057.513.084.777-.01a1.19 1.19 0 0 0 .659-.56c.15-.278.179-.594.082-.893a1.18 1.18 0 0 0-.468-.607s-.152-.09-.398-.214a23.77 23.77 0 0 0-2.459-1.017C35.13.846 30.082-.001 24.283-.001c-10.936 0-21.967 3.607-21.967 11.66 0 2.594 1.686 5.282 5.155 8.219 2.576 2.101 5.576 4.1 8.476 6.032 5.247 3.494 10.202 6.796 10.202 9.296 0 1.17-1.457 1.758-5.031 1.758-2.823 0-4.638-.305-4.638-.305-5.545-.888-9.966-2.625-13.922-5.485 0 0-.095-.07-.156-.11Z" fill="#DC1B30"/></svg>