<svg width="16" height="16" fill="none" xmlns="http://www.w3.org/2000/svg"><g clip-path="url(#a)"><path d="m1.333 4.667 2.94-2.94a1.333 1.333 0 0 1 .947-.394h5.56a1.334 1.334 0 0 1 .947.394l2.94 2.94m-13.334 0h13.334m-13.334 0v2A1.333 1.333 0 0 0 2.667 8m12-3.333v2A1.333 1.333 0 0 1 13.333 8M2.667 8v5.333A1.333 1.333 0 0 0 4 14.667h8a1.333 1.333 0 0 0 1.333-1.334V8M2.667 8a1.8 1.8 0 0 0 1.06-.42.467.467 0 0 1 .546 0 1.8 1.8 0 0 0 1.06.42 1.8 1.8 0 0 0 1.06-.42.467.467 0 0 1 .547 0A1.8 1.8 0 0 0 8 8a1.8 1.8 0 0 0 1.06-.42.467.467 0 0 1 .547 0 1.8 1.8 0 0 0 1.06.42 1.8 1.8 0 0 0 1.06-.42.467.467 0 0 1 .546 0 1.8 1.8 0 0 0 1.06.42M10 14.667V12a1.333 1.333 0 0 0-1.333-1.333H7.333A1.333 1.333 0 0 0 6 12v2.667" stroke="#232323" stroke-width="1.5" stroke-linecap="round" stroke-linejoin="round"/></g><defs><clipPath id="a"><path fill="#fff" d="M0 0h16v16H0z"/></clipPath></defs></svg>